<?xml version="1.0" encoding="UTF-8"?>
<svg id="Layer_2" data-name="Layer 2" xmlns="http://www.w3.org/2000/svg" viewBox="0 0 160 160">
  <defs>
    <style>
      .cls-1 {
        fill: #ae5b89;
      }
    </style>
  </defs>
  <path class="cls-1" d="M70.5,131.81c3.54-3.59,23,17.09,28.84,24.97.45.6.81,1.13,1.01,1.5,2.67,5.04-26.02-18.65-29.81-25.82-.1-.19-.18-.36-.15-.49.02-.06.06-.11.11-.16Z"/>
  <path class="cls-1" d="M14.29,1.01c-2.81.32-2.43,23.39,5.41,43.13,5.07,12.77,13.27,24.15,15.34,23.57,2.23-.62-2.6-15.03-7.06-29.36C22.1,19.47,16.86.72,14.29,1.01Z"/>
  <path class="cls-1" d="M29,41.62c-4.53-.1-.17-25.55,11.83-35.94,2.7-2.34,5.78-3.91,7.55-3.93,5.11-.06-.86,12.95-6.89,23.68-5,8.9-10.04,16.24-12.49,16.19Z"/>
  <path class="cls-1" d="M29,41.62c-1.37,1.94,13.57,11.76,28.82,15.15,7.38,1.64,14.83,1.78,15.75.56,1.21-1.61-8.85-5.56-18.62-9.06-12.65-4.52-24.82-8.25-25.95-6.66Z"/>
  <path class="cls-1" d="M94.32,35.1c-.64-2.51,12.13-8.72,25.51-10.85,13.31-2.13,27.21-.23,27.47,2.33.26,2.54-12.92,5.73-26.23,7.84-13.01,2.06-26.14,3.1-26.76.68Z"/>
  <path class="cls-1" d="M99.93,158.89c1.85,1.35,12.12-10.87,20.92-23.9,8.01-11.86,14.8-24.4,13.17-25.76-1.7-1.42-12.6,9.38-21.09,21.68-8.66,12.55-14.8,26.66-13,27.98Z"/>
  <path class="cls-1" d="M51.72,143.82c-.82-.38,1.24-2.34,3.49-4.16,5.61-4.52,12.47-8.18,15-7.99.1,0,.19.02.22.08.11.19-.26.84-.63,1.45-3.36,5.52-6.3,7.48-13.09,9.62-2.01.64-4.36,1.29-5,.99Z"/>
  <path class="cls-1" d="M37.16,121.96c-1.22.76,1.73,8.19,6.36,14.26,3.46,4.52,7.87,8.28,8.83,7.61.98-.69-1.61-5.96-4.81-10.82-4.1-6.22-9.2-11.77-10.39-11.04Z"/>
  <path class="cls-1" d="M52.38,142.21c.7-.75,1.74-1.66,2.84-2.55,5.61-4.52,12.47-8.18,15-7.99.1,0,.19.02.22.08.01.03.02.06.02.1-.03.04-.06.08-.07.12-.01.04,0,.09,0,.15-.11.29-.35.7-.59,1.09-3.36,5.52-6.3,7.48-13.09,9.62-1.67.53-3.58,1.07-4.54,1.07-1.23.23-5.37-3.38-8.66-7.68-4.64-6.06-7.58-13.49-6.36-14.26,1.18-.74,6.29,4.81,10.39,11.04,2.28,3.46,4.25,7.14,4.84,9.21Z"/>
  <path class="cls-1" d="M70.4,132.12c.04-.11.06-.2.07-.27.01-.01.03-.03.04-.04,3.54-3.59,23,17.09,28.84,24.97.11.15.22.3.32.44.59-4.32,6.05-15.86,13.26-26.31,8.49-12.3,19.39-23.1,21.09-21.68,1.63,1.36-5.16,13.89-13.17,25.76-8.8,13.03-19.07,25.25-20.92,23.9-3.94-1.45-26.09-20.19-29.39-26.43-.07-.12-.12-.24-.15-.34Z"/>
  <path class="cls-1" d="M94.32,35.1c-.64-2.51,12.13-8.72,25.51-10.85,13.31-2.13,27.21-.23,27.47,2.33.26,2.54-12.92,5.73-26.23,7.84-13.01,2.06-26.14,3.1-26.76.68Z"/>
  <path class="cls-1" d="M29.42,42.97c-.14-.45-.28-.9-.42-1.35.33,0,.71-.12,1.13-.37,3.49-.14,13.98,3.16,24.82,7.03,9.77,3.49,19.83,7.45,18.62,9.06-.92,1.22-8.37,1.08-15.75-.56-12.97-2.89-25.72-10.43-28.39-13.81Z"/>
  <path class="cls-1" d="M30.13,41.25c-.58.02-.97.14-1.13.37-.34-1.09-.68-2.18-1.02-3.27-.24-.76-.47-1.51-.7-2.27.38-8.11,5.05-23.03,13.55-30.4,2.7-2.34,5.78-3.91,7.55-3.93,5.11-.06-.86,12.95-6.89,23.68-4.32,7.69-8.67,14.22-11.35,15.81Z"/>
  <path class="cls-1" d="M27.28,36.08c-.16,3.33.41,5.51,1.73,5.54-.2.29-.05.75.42,1.35,3.97,12.66,7.6,24.19,5.61,24.74-2.08.58-10.27-10.8-15.34-23.57C11.85,24.4,11.47,1.33,14.29,1.01c2.47-.28,7.4,16.99,12.99,35.07Z"/>
</svg>