<?xml version="1.0" encoding="UTF-8"?>
<svg id="Layer_1" data-name="Layer 1" xmlns="http://www.w3.org/2000/svg" viewBox="0 0 160 160">
  <defs>
    <style>
      .cls-1 {
        fill: #b75f90;
      }

      .cls-2 {
        fill: none;
      }

      .cls-3 {
        fill: #ae5b89;
      }
    </style>
  </defs>
  <path class="cls-2" d="M76.82,130.45c-4.32-2,3.54,12.59,13.83,22.36,3.02,2.87,6.25,5.32,7.86,6.01,4.66,2-4.22-10.7-12.38-19.78-3.87-4.3-7.57-7.79-9.31-8.59Z"/>
  <path class="cls-2" d="M59.22,149.33c.8,3.62,15.43-4.06,18.78-12.89.79-2.09.95-4.24.48-5.36-2.35-5.52-20.18,14.04-19.25,18.26Z"/>
  <path class="cls-2" d="M42.21,122.46c-4.39,2.05,13.74,28.5,18.1,27.7,2.86-.53-.2-12.76-6.82-20.57-4.08-4.81-9.51-7.95-11.28-7.13Z"/>
  <path class="cls-2" d="M115.35,1.28c-2.69.3-3.63,21.72-.59,42.6,2.54,17.43,7.85,34.49,10.22,34.08,2.34-.4,1.82-17.82-.12-35.14-2.36-21-6.81-41.84-9.5-41.55Z"/>
  <path class="cls-2" d="M35.17,52.32c-.83,1.32,11.48,9.46,24.75,14.57,11.53,4.44,23.78,6.59,24.39,5.31.64-1.34-11.52-6.46-23.6-11.34-12.43-5.02-24.76-9.78-25.54-8.54Z"/>
  <path class="cls-2" d="M35.77,52.03c-3.06-1.43.41-16.56,8.33-28.19,4.27-6.27,9.84-11.53,11.82-10.58,2.12,1.01.15,9.11-3.09,16.67-5.34,12.45-14.15,23.46-17.06,22.1Z"/>
  <path class="cls-2" d="M18.75.82c-3.88.43-4.1,24.67.48,47.73,4.22,21.24,12.51,41.46,16.12,40.91,3.74-.58,2.48-23.38-1.66-45.44C29.53,21.84,22.46.41,18.75.82Z"/>
  <path class="cls-1" d="M42.21,122.46c1.77-.83,7.2,2.31,11.28,7.13,3.9,4.61,6.57,10.74,7.51,15.12,4.44-7.03,15.65-17.93,17.48-13.63.07.18.13.38.18.6,1.95,1.55,4.67,4.24,7.48,7.37,4.92,5.48,10.11,12.27,12.42,16.36.59-4.29,3.18-11.54,6.96-18.15,6.58-11.49,16.77-21.04,18.93-19.48,2.07,1.5-3.23,13.19-10.03,23.99-6.05,9.61-13.29,18.52-15.36,17.3-.05-.03-.1-.06-.14-.1-.12-.03-.26-.08-.42-.15-1.61-.69-4.84-3.14-7.86-6.01-5.36-5.09-10.07-11.49-12.73-16.17-3.06,7.66-14.49,14.4-17.82,13.54-4.69,0-22.22-25.7-17.89-27.72Z"/>
  <path class="cls-3" d="M115.35,1.28c2.69-.3,7.15,20.54,9.5,41.55,1.94,17.31,2.47,34.74.12,35.14-2.37.4-7.68-16.65-10.22-34.08-3.04-20.88-2.1-42.3.59-42.6Z"/>
  <path class="cls-1" d="M18.75.82c3.71-.41,10.78,21.02,14.94,43.19.38,2.03.74,4.07,1.07,6.09-.68-4.71,2.83-16.67,9.35-26.26,4.27-6.27,9.84-11.53,11.82-10.58,2.12,1.01.15,9.11-3.09,16.67-5.09,11.87-13.33,22.42-16.61,22.21,3.34.33,13.89,4.43,24.5,8.72,12.08,4.88,24.24,9.99,23.6,11.34-.61,1.28-12.86-.87-24.39-5.31-13.27-5.11-25.58-13.25-24.75-14.57.11-.17.44-.23.96-.18-.13-.02-.25-.05-.37-.1-.49-.23-.81-.81-.98-1.67,3.22,19.88,3.93,38.57.55,39.09-3.61.56-11.91-19.67-16.12-40.91C14.65,25.49,14.87,1.25,18.75.82Z"/>
  <path class="cls-2" d="M99.07,159.07c-2.03-1.2.94-12.19,6.45-21.82,6.58-11.49,16.77-21.04,18.93-19.48,2.07,1.5-3.23,13.19-10.03,23.99-6.05,9.61-13.29,18.52-15.36,17.3Z"/>
</svg>